<?xml version="1.0" encoding="utf-8"?>
<!-- Generator: Adobe Illustrator 25.4.1, SVG Export Plug-In . SVG Version: 6.00 Build 0)  -->
<svg version="1.1" id="Layer_1" xmlns="http://www.w3.org/2000/svg" xmlns:xlink="http://www.w3.org/1999/xlink" x="0px" y="0px"
	 viewBox="0 0 246 257.5" style="enable-background:new 0 0 246 257.5;" xml:space="preserve">
<style type="text/css">
	.st0{fill-rule:evenodd;clip-rule:evenodd;fill:#0065FC;}
</style>
<g>
	<path class="st0" d="M91,190c0-38-20-60-33-92c0-3,0-8-2-11c6-1,43-13,37-21c-3-4-29,12-42,15c-3-10-3-16-3-18c18-2,10-12,5-10
		c-7,4-42,2-44-5c41,1,39-11,32-10C23,42,3,47-1,28l0,0c4-1,26-7,28-8C39,8,44,2,63,2c61,16,24,91-3,12c-4-3-9,2-5,6
		c4,3,21,63,43,31c5,7,5,8,15,9c179,17,73,17,132,98c-1,7-4,51-11,51h-22c0-9,9-10,18-13c1-1,2-2,2-4c0-6,3-31-3-32
		c-30-6-44-42-51-39c-4,2,0,8,2,11c-15,6-46,10-66,4c0-3,1-8-3-9c-13-1-3,81-15,81H74c0-9,6-9,14-13 M37,22c0,5,8,5,8,0S37,17,37,22
		z"/>
	<path class="st0" d="M232,27c16,19,21,45-2,61c-1-3-3-7-5-10c18-13,16-33,7-52V27z"/>
</g>
</svg>
