<?xml version="1.0" encoding="utf-8"?>
<!-- Generator: Adobe Illustrator 25.4.1, SVG Export Plug-In . SVG Version: 6.00 Build 0)  -->
<svg version="1.1" id="Layer_1" xmlns="http://www.w3.org/2000/svg" xmlns:xlink="http://www.w3.org/1999/xlink" x="0px" y="0px"
	 viewBox="0 0 133.1 266.5" style="enable-background:new 0 0 133.1 266.5;" xml:space="preserve">
<style type="text/css">
	.st0{fill-rule:evenodd;clip-rule:evenodd;fill:#0065FC;}
</style>
<g>
	<path class="st0" d="M56,52.5h21.1l39.2-46c8.2-9.6,22.5,2.6,14.5,12.1c-8.9,10.6-28,32.4-40,46.8c-0.2,46.1-0.3,92.2-0.3,138.4
		c0,12.5-20.7,12.5-20.7,0l-0.1-54.2c0-7.1-6.1-7.5-6.1,0l-0.1,54.2c0,12.5-20.6,12.5-20.7,0L42.4,65.4c-12-14.4-31.1-36.2-40-46.8
		c-8-9.5,6.3-21.7,14.5-12.1L56,52.5L56,52.5z M66.6,0c12.7,0,23.1,10.3,23.1,23.1c0,12.7-10.3,23.1-23.1,23.1
		c-12.7,0-23-10.3-23-23S53.8,0,66.6,0z"/>
</g>
</svg>
