<?xml version="1.0" encoding="utf-8"?>
<!-- Generator: Adobe Illustrator 25.4.1, SVG Export Plug-In . SVG Version: 6.00 Build 0)  -->
<svg version="1.1" id="Layer_1" xmlns="http://www.w3.org/2000/svg" xmlns:xlink="http://www.w3.org/1999/xlink" x="0px" y="0px"
	 viewBox="0 0 48 60" style="enable-background:new 0 0 48 60;" xml:space="preserve">
<g>
	<path d="M46.1,48H1.9c-1,0-1.9-0.9-1.9-1.9V1.9C0,0.9,0.9,0,1.9,0s1.9,0.9,1.9,1.9v42.3h42.3c1,0,1.9,0.9,1.9,1.9S47.1,48,46.1,48z
		"/>
	<path d="M33,32.3c-0.4,0-0.8-0.1-1.1-0.3L15.8,20.5L8.1,30.6c-0.6,0.8-1.8,1-2.7,0.4c-0.8-0.6-1-1.8-0.4-2.7l8.8-11.6
		c0.6-0.8,1.8-1,2.6-0.4l15.8,11.2L42.5,5.3c0.4-1,1.6-1.4,2.5-0.9c1,0.4,1.4,1.6,0.9,2.5L34.8,31.1c-0.2,0.5-0.7,0.9-1.2,1
		C33.4,32.2,33.2,32.3,33,32.3z"/>
	<path d="M46.1,13.9c-0.9,0-1.7-0.6-1.9-1.5l-0.9-4.3l-4.5,1.5c-1,0.3-2.1-0.2-2.4-1.2c-0.3-1,0.2-2.1,1.2-2.4l6.5-2.1
		c0.5-0.2,1.1-0.1,1.5,0.2c0.5,0.3,0.8,0.7,0.9,1.2l1.4,6.3c0.2,1-0.4,2-1.5,2.3C46.4,13.9,46.2,13.9,46.1,13.9z"/>
</g>
</svg>
