<?xml version="1.0" encoding="utf-8"?>
<!-- Generator: Adobe Illustrator 25.4.1, SVG Export Plug-In . SVG Version: 6.00 Build 0)  -->
<svg version="1.1" id="Layer_1" xmlns="http://www.w3.org/2000/svg" xmlns:xlink="http://www.w3.org/1999/xlink" x="0px" y="0px"
	 viewBox="0 0 32 40" style="enable-background:new 0 0 32 40;" xml:space="preserve">
<style type="text/css">
	.st0{fill:#FFFFFF;}
</style>
<g>
	<path class="st0" d="M29.1,26.9L22.1,20c3.7-4.8,2.7-11.7-2.1-15.4S8.3,1.9,4.6,6.7S1.9,18.5,6.7,22.1c3.9,3,9.4,3,13.3,0l6.9,6.9
		c0.6,0.6,1.5,0.6,2.1,0C29.6,28.5,29.6,27.5,29.1,26.9C29.1,26.9,29.1,26.9,29.1,26.9z M5.5,13.4c0-4.4,3.5-7.9,7.9-7.9
		s7.9,3.5,7.9,7.9c0,2.1-0.8,4.1-2.3,5.6H19v0c-3.1,3.1-8.1,3.1-11.2,0C6.3,17.5,5.5,15.5,5.5,13.4z"/>
</g>
</svg>
