<?xml version="1.0" encoding="utf-8"?>
<!-- Generator: Adobe Illustrator 25.4.1, SVG Export Plug-In . SVG Version: 6.00 Build 0)  -->
<svg version="1.1" id="Layer_1" xmlns="http://www.w3.org/2000/svg" xmlns:xlink="http://www.w3.org/1999/xlink" x="0px" y="0px"
	 viewBox="0 0 91 113.8" style="enable-background:new 0 0 91 113.8;" xml:space="preserve">
<style type="text/css">
	.st0{fill:#0065FC;}
</style>
<g>
	<path class="st0" d="M2.9,40.6l17.6,12.8c2,1.5,2.9,4.1,2.1,6.4l-6.7,20.7c-1.7,5.3,4.3,9.7,8.8,6.4l17.6-12.8c2-1.5,4.7-1.5,6.7,0
		L66.7,87c4.5,3.3,10.6-1.1,8.8-6.4l-6.7-20.7c-0.8-2.4,0.1-5,2.1-6.4l17.6-12.8c4.5-3.3,2.2-10.4-3.4-10.4H63.3
		c-2.5,0-4.7-1.6-5.5-4L51.1,5.6c-1.7-5.3-9.2-5.3-10.9,0l-6.7,20.7c-0.8,2.4-3,4-5.5,4H6.3C0.7,30.3-1.6,37.4,2.9,40.6z"/>
</g>
</svg>
